<svg xmlns="http://www.w3.org/2000/svg" viewBox="0 0 45 31" width="45" height="31"><g transform="translate(-82.5, -460.5)"><path fill-rule="evenodd" clip-rule="evenodd" d="M107.789 475.317H109.273C109.744 475.3 110.03 475.263 110.133 475.204C110.274 475.124 110.368 474.965 110.415 474.725C110.445 474.566 110.46 474.329 110.46 474.014C110.46 473.628 110.43 473.342 110.37 473.155C110.285 472.893 110.08 472.734 109.755 472.676C109.691 472.667 109.537 472.663 109.293 472.663H107.789V475.317ZM105.408 479.789V470.667H109.844C110.452 470.667 110.916 470.718 111.235 470.82C111.965 471.056 112.454 471.539 112.705 472.268C112.835 472.651 112.899 473.227 112.899 473.997C112.899 474.922 112.827 475.587 112.686 475.992C112.401 476.792 111.815 477.253 110.931 477.373C110.827 477.391 110.385 477.407 109.604 477.42L109.208 477.433H107.789V479.789H105.408ZM93.4533 473.576H95.6682C95.6824 473.375 95.6896 473.224 95.6896 473.123C95.6896 471.894 95.2078 471.146 94.2439 470.879C93.849 470.77 93.1865 470.715 92.2569 470.715C91.6664 470.715 91.1296 470.737 90.6457 470.781C90.0641 470.829 89.5863 470.99 89.213 471.265C88.9581 471.445 88.7734 471.706 88.6587 472.052C88.5442 472.396 88.4869 472.855 88.4869 473.427C88.4869 474.178 88.593 474.739 88.8049 475.11C89.0461 475.547 89.5293 475.835 90.2545 475.975C90.5299 476.023 91.0216 476.073 91.7295 476.125C92.611 476.187 93.1049 476.235 93.2111 476.27C93.4949 476.357 93.6371 476.602 93.6371 477.003C93.6371 477.182 93.6203 477.329 93.5864 477.442C93.5225 477.626 93.3889 477.759 93.1853 477.842C93.0709 477.886 92.8057 477.907 92.3902 477.907H91.5759C91.3591 477.903 91.1748 477.862 91.022 477.783C90.8017 477.67 90.6913 477.415 90.6913 477.019L90.6911 476.829H88.4762C88.4762 477.572 88.5289 478.102 88.6354 478.42C88.8265 478.992 89.2214 479.372 89.8205 479.559C90.3086 479.712 91.173 479.789 92.4135 479.789C93.1565 479.789 93.709 479.753 94.0702 479.683C94.9322 479.517 95.4861 479.122 95.7328 478.497C95.8688 478.156 95.9368 477.618 95.9368 476.884C95.9368 476.565 95.922 476.279 95.8921 476.025C95.8412 475.602 95.6814 475.259 95.4134 474.996C95.0729 474.66 94.524 474.452 93.767 474.373C93.5285 474.347 92.9306 474.301 91.9733 474.235L91.5267 474.203C91.3306 474.19 91.1734 474.146 91.0544 474.072C90.8882 473.967 90.8054 473.748 90.8054 473.416C90.8054 473.049 90.899 472.811 91.0859 472.702C91.273 472.592 91.6563 472.538 92.2346 472.538C92.83 472.538 93.1938 472.633 93.3256 472.822C93.4106 472.95 93.4533 473.202 93.4533 473.576ZM88.4846 481.598L88.8166 481.563C88.8366 481.678 88.8772 481.763 88.9382 481.817C88.9994 481.871 89.0818 481.898 89.1856 481.898C89.2955 481.898 89.3783 481.874 89.4341 481.826C89.4898 481.778 89.5176 481.722 89.5176 481.658C89.5176 481.616 89.5059 481.581 89.4826 481.552C89.4592 481.523 89.4184 481.498 89.3601 481.477C89.3202 481.462 89.2294 481.437 89.0876 481.401C88.9051 481.354 88.7772 481.297 88.7035 481.229C88.6001 481.133 88.5483 481.017 88.5483 480.879C88.5483 480.791 88.5727 480.708 88.6215 480.631C88.6703 480.554 88.7407 480.495 88.8324 480.455C88.9243 480.414 89.0352 480.394 89.165 480.394C89.3771 480.394 89.5367 480.442 89.6439 480.538C89.7511 480.634 89.8073 480.763 89.8127 480.923L89.4707 480.937C89.4561 480.847 89.4247 480.783 89.3766 480.744C89.3287 480.704 89.2567 480.685 89.1606 480.685C89.0614 480.685 88.984 480.706 88.9278 480.748C88.8917 480.775 88.8736 480.811 88.8736 480.856C88.8736 480.897 88.8906 480.932 88.9244 480.962C88.9673 480.999 89.0717 481.038 89.2377 481.078C89.4035 481.118 89.5261 481.16 89.6057 481.203C89.6851 481.247 89.7473 481.306 89.7923 481.381C89.8372 481.456 89.8597 481.549 89.8597 481.659C89.8597 481.759 89.8328 481.853 89.7789 481.941C89.725 482.028 89.6489 482.093 89.5505 482.136C89.4521 482.178 89.3294 482.199 89.1825 482.199C88.9687 482.199 88.8045 482.148 88.6899 482.046C88.5754 481.943 88.5069 481.794 88.4846 481.598ZM90.2143 480.906H90.5396V482.168H90.2143V480.906ZM90.2143 480.425H90.5396V480.733H90.2143V480.425ZM91.7325 482.168H92.0578V481.382C92.0578 481.285 92.0518 481.209 92.0399 481.157C92.028 481.105 92.0068 481.058 91.9765 481.017C91.9461 480.975 91.9013 480.941 91.8422 480.915C91.7831 480.888 91.7177 480.875 91.6462 480.875C91.4842 480.875 91.3496 480.947 91.2428 481.091V480.906H90.941V482.168H91.2663V481.595C91.2663 481.454 91.2745 481.357 91.291 481.305C91.3074 481.252 91.3378 481.21 91.3822 481.178C91.4266 481.147 91.4768 481.131 91.5327 481.131C91.5763 481.131 91.6136 481.142 91.6446 481.164C91.6756 481.186 91.698 481.218 91.7118 481.258C91.7255 481.298 91.7325 481.386 91.7325 481.523V482.168ZM92.7157 481.51C92.7157 481.644 92.7406 481.743 92.7906 481.805C92.8405 481.867 92.9021 481.898 92.9754 481.898C93.0538 481.898 93.1202 481.867 93.1743 481.803C93.2284 481.739 93.2556 481.644 93.2556 481.518C93.2556 481.387 93.2296 481.29 93.1778 481.226C93.1258 481.163 93.0604 481.131 92.9811 481.131C92.904 481.131 92.8405 481.162 92.7906 481.224C92.7406 481.287 92.7157 481.382 92.7157 481.51ZM92.4239 482.251L92.7928 482.293C92.799 482.34 92.8133 482.372 92.8356 482.39C92.8665 482.415 92.9151 482.428 92.9814 482.428C93.0663 482.428 93.13 482.415 93.1725 482.388C93.2009 482.371 93.2226 482.343 93.2373 482.304C93.2473 482.276 93.2523 482.225 93.2523 482.15L93.2533 481.966C93.1573 482.101 93.0356 482.168 92.888 482.168C92.7232 482.168 92.5929 482.096 92.4968 481.953C92.4213 481.839 92.3837 481.698 92.3837 481.529C92.3837 481.317 92.433 481.155 92.5319 481.043C92.6307 480.931 92.7537 480.875 92.9006 480.875C93.0522 480.875 93.1772 480.944 93.2757 481.081V480.906H93.5776V482.041C93.5776 482.19 93.5657 482.301 93.5418 482.375C93.5179 482.449 93.4845 482.507 93.4413 482.549C93.3982 482.591 93.3406 482.624 93.2686 482.648C93.1966 482.672 93.1056 482.684 92.9956 482.684C92.7877 482.684 92.6403 482.647 92.5532 482.573C92.4662 482.499 92.4227 482.405 92.4227 482.292C92.4227 482.281 92.4232 482.267 92.4239 482.251ZM94.2924 480.425H93.9671V482.168H94.2924V480.425ZM95.425 481.432C95.4227 481.333 95.3984 481.259 95.3519 481.207C95.3056 481.156 95.2491 481.131 95.1826 481.131C95.1114 481.131 95.0526 481.158 95.0062 481.212C94.9598 481.266 94.937 481.339 94.9378 481.432H95.425ZM95.4083 481.771L95.7302 481.826C95.6886 481.948 95.6228 482.04 95.533 482.104C95.4431 482.168 95.3307 482.199 95.1958 482.199C94.9821 482.199 94.824 482.127 94.7215 481.983C94.6405 481.868 94.6 481.723 94.6 481.547C94.6 481.337 94.6532 481.172 94.7596 481.053C94.866 480.934 95.0005 480.875 95.163 480.875C95.3458 480.875 95.4899 480.937 95.5955 481.062C95.7011 481.187 95.7516 481.378 95.747 481.636H94.9321C94.9343 481.735 94.9607 481.812 95.0112 481.868C95.0616 481.923 95.1245 481.95 95.1999 481.95C95.251 481.95 95.2942 481.936 95.3291 481.908C95.3639 481.879 95.3905 481.834 95.4083 481.771ZM96.8113 480.425V482.168H98.0958V481.874H97.1534V481.4H97.9986V481.107H97.1534V480.719H98.0623V480.425H96.8113ZM99.2586 482.168V481.979C99.2138 482.047 99.1551 482.1 99.0822 482.14C99.0094 482.179 98.9325 482.199 98.8516 482.199C98.7691 482.199 98.6952 482.181 98.6297 482.143C98.5642 482.106 98.5168 482.054 98.4875 481.986C98.4582 481.919 98.4436 481.825 98.4436 481.706V480.906H98.7689V481.486C98.7689 481.664 98.7748 481.773 98.7868 481.813C98.7987 481.853 98.8204 481.885 98.8519 481.908C98.8835 481.932 98.9234 481.943 98.9719 481.943C99.0273 481.943 99.077 481.928 99.1208 481.896C99.1647 481.865 99.1946 481.826 99.2108 481.78C99.2269 481.733 99.2351 481.62 99.2351 481.439V480.906H99.5603V482.168H99.2586ZM99.9499 482.168H100.275V481.778C100.275 481.563 100.284 481.422 100.302 481.354C100.321 481.287 100.346 481.24 100.377 481.214C100.409 481.189 100.447 481.176 100.493 481.176C100.54 481.176 100.591 481.194 100.646 481.23L100.745 480.938C100.676 480.896 100.605 480.875 100.531 480.875C100.479 480.875 100.432 480.889 100.391 480.917C100.35 480.944 100.303 481.001 100.252 481.085V480.906H99.9499V482.168ZM101.208 481.537C101.208 481.663 101.237 481.759 101.295 481.826C101.353 481.893 101.424 481.926 101.509 481.926C101.593 481.926 101.665 481.893 101.722 481.826C101.779 481.759 101.808 481.662 101.808 481.535C101.808 481.411 101.779 481.315 101.722 481.248C101.665 481.182 101.593 481.148 101.509 481.148C101.424 481.148 101.353 481.182 101.295 481.248C101.237 481.315 101.208 481.411 101.208 481.537ZM100.876 481.519C100.876 481.408 100.902 481.3 100.956 481.196C101.009 481.092 101.084 481.012 101.181 480.957C101.278 480.902 101.387 480.875 101.507 480.875C101.692 480.875 101.844 480.937 101.963 481.062C102.081 481.186 102.14 481.343 102.14 481.534C102.14 481.725 102.08 481.884 101.961 482.01C101.841 482.136 101.691 482.199 101.509 482.199C101.397 482.199 101.29 482.173 101.188 482.121C101.086 482.068 101.009 481.991 100.956 481.89C100.902 481.788 100.876 481.665 100.876 481.519ZM103.542 481.217V480.719H103.706C103.829 480.719 103.91 480.723 103.951 480.731C104.006 480.742 104.052 480.768 104.088 480.809C104.124 480.851 104.142 480.903 104.142 480.967C104.142 481.019 104.129 481.064 104.103 481.103C104.078 481.143 104.042 481.171 103.997 481.19C103.952 481.208 103.862 481.217 103.728 481.217H103.542ZM103.2 480.425V482.168H103.542V481.511H103.764C103.918 481.511 104.036 481.503 104.117 481.486C104.177 481.473 104.236 481.445 104.294 481.403C104.352 481.362 104.4 481.305 104.438 481.232C104.475 481.159 104.494 481.069 104.494 480.962C104.494 480.823 104.461 480.71 104.396 480.622C104.331 480.535 104.25 480.478 104.153 480.451C104.09 480.434 103.955 480.425 103.747 480.425H103.2ZM105.516 481.563C105.474 481.577 105.409 481.594 105.319 481.614C105.229 481.634 105.171 481.654 105.143 481.673C105.101 481.704 105.08 481.743 105.08 481.791C105.08 481.838 105.097 481.879 105.131 481.913C105.164 481.947 105.207 481.964 105.26 481.964C105.318 481.964 105.373 481.944 105.426 481.905C105.465 481.874 105.491 481.837 105.503 481.793C105.512 481.765 105.516 481.71 105.516 481.63V481.563ZM105.08 481.29L104.788 481.234C104.821 481.112 104.878 481.022 104.959 480.963C105.04 480.904 105.16 480.875 105.319 480.875C105.463 480.875 105.571 480.893 105.642 480.928C105.713 480.963 105.763 481.008 105.791 481.062C105.82 481.117 105.835 481.217 105.835 481.362L105.831 481.753C105.831 481.864 105.837 481.946 105.847 481.999C105.857 482.051 105.877 482.108 105.905 482.168H105.583C105.575 482.146 105.564 482.114 105.552 482.071C105.547 482.051 105.543 482.039 105.541 482.032C105.485 482.088 105.426 482.13 105.363 482.158C105.3 482.185 105.233 482.199 105.161 482.199C105.035 482.199 104.936 482.164 104.864 482.093C104.791 482.023 104.755 481.933 104.755 481.825C104.755 481.754 104.771 481.69 104.804 481.634C104.837 481.578 104.884 481.535 104.943 481.505C105.003 481.476 105.089 481.45 105.201 481.427C105.353 481.398 105.458 481.371 105.516 481.345V481.311C105.516 481.246 105.501 481.2 105.47 481.172C105.439 481.145 105.38 481.131 105.295 481.131C105.237 481.131 105.191 481.143 105.159 481.166C105.126 481.19 105.1 481.231 105.08 481.29ZM106.414 480.906H106.068L106.535 482.172C106.516 482.243 106.488 482.302 106.451 482.348C106.415 482.394 106.359 482.417 106.283 482.417C106.242 482.417 106.196 482.412 106.145 482.402L106.176 482.663C106.236 482.677 106.297 482.684 106.359 482.684C106.421 482.684 106.476 482.677 106.525 482.663C106.574 482.65 106.615 482.631 106.649 482.606C106.682 482.582 106.712 482.551 106.738 482.512C106.763 482.473 106.79 482.417 106.819 482.343L107.329 480.906H106.994L106.707 481.802L106.414 480.906ZM107.583 480.906H107.881V481.078C107.989 480.943 108.116 480.875 108.264 480.875C108.343 480.875 108.411 480.891 108.469 480.925C108.527 480.958 108.574 481.009 108.611 481.076C108.665 481.009 108.723 480.958 108.785 480.925C108.848 480.891 108.914 480.875 108.985 480.875C109.075 480.875 109.152 480.894 109.214 480.931C109.276 480.969 109.323 481.024 109.354 481.098C109.376 481.151 109.387 481.239 109.387 481.36V482.168H109.062V481.445C109.062 481.32 109.051 481.239 109.028 481.202C108.998 481.154 108.952 481.131 108.89 481.131C108.845 481.131 108.802 481.145 108.762 481.174C108.722 481.202 108.694 481.244 108.676 481.299C108.658 481.354 108.649 481.442 108.649 481.561V482.168H108.324V481.475C108.324 481.352 108.318 481.273 108.307 481.237C108.295 481.201 108.277 481.174 108.253 481.157C108.229 481.14 108.196 481.131 108.155 481.131C108.105 481.131 108.06 481.145 108.02 481.172C107.98 481.2 107.951 481.24 107.934 481.293C107.917 481.345 107.908 481.432 107.908 481.554V482.168H107.583V480.906ZM110.434 481.207C110.481 481.259 110.505 481.333 110.508 481.432H110.02C110.02 481.339 110.042 481.266 110.089 481.212C110.135 481.158 110.194 481.131 110.265 481.131C110.332 481.131 110.388 481.156 110.434 481.207ZM110.813 481.826L110.491 481.771C110.473 481.834 110.447 481.879 110.412 481.908C110.377 481.936 110.334 481.95 110.283 481.95C110.207 481.95 110.144 481.923 110.094 481.868C110.043 481.812 110.017 481.735 110.015 481.636H110.83C110.834 481.378 110.784 481.187 110.678 481.062C110.573 480.937 110.428 480.875 110.246 480.875C110.083 480.875 109.949 480.934 109.842 481.053C109.736 481.172 109.683 481.337 109.683 481.547C109.683 481.723 109.723 481.868 109.804 481.983C109.907 482.127 110.065 482.199 110.278 482.199C110.413 482.199 110.526 482.168 110.616 482.104C110.705 482.04 110.771 481.948 110.813 481.826ZM112.277 482.168H111.952V481.523C111.952 481.386 111.945 481.298 111.931 481.258C111.918 481.218 111.895 481.186 111.864 481.164C111.833 481.142 111.796 481.131 111.752 481.131C111.696 481.131 111.646 481.147 111.602 481.178C111.557 481.21 111.527 481.252 111.51 481.305C111.494 481.357 111.486 481.454 111.486 481.595V482.168H111.161V480.906H111.462V481.091C111.569 480.947 111.704 480.875 111.866 480.875C111.937 480.875 112.003 480.888 112.062 480.915C112.121 480.941 112.166 480.975 112.196 481.017C112.226 481.058 112.247 481.105 112.259 481.157C112.271 481.209 112.277 481.285 112.277 481.382V482.168ZM113.237 481.172V480.906H113.016V480.456L112.69 480.653V480.906H112.543V481.172H112.69V481.724C112.69 481.842 112.694 481.921 112.701 481.96C112.709 482.015 112.724 482.058 112.746 482.09C112.768 482.122 112.802 482.149 112.849 482.169C112.895 482.189 112.948 482.199 113.006 482.199C113.101 482.199 113.185 482.183 113.26 482.149L113.232 481.891C113.176 481.912 113.134 481.923 113.104 481.923C113.083 481.923 113.065 481.917 113.05 481.906C113.035 481.895 113.026 481.881 113.022 481.864C113.018 481.847 113.016 481.786 113.016 481.683V481.172H113.237ZM113.42 481.812L113.745 481.76C113.759 481.825 113.787 481.874 113.829 481.907C113.872 481.941 113.931 481.957 114.007 481.957C114.09 481.957 114.153 481.941 114.196 481.909C114.224 481.887 114.238 481.857 114.238 481.82C114.238 481.794 114.23 481.773 114.215 481.756C114.199 481.74 114.162 481.726 114.106 481.712C113.843 481.652 113.677 481.597 113.606 481.548C113.509 481.48 113.46 481.385 113.46 481.263C113.46 481.154 113.502 481.062 113.586 480.987C113.671 480.912 113.801 480.875 113.978 480.875C114.147 480.875 114.272 480.903 114.354 480.959C114.436 481.015 114.492 481.097 114.523 481.207L114.218 481.266C114.205 481.217 114.18 481.179 114.143 481.153C114.106 481.126 114.053 481.113 113.985 481.113C113.899 481.113 113.837 481.126 113.799 481.151C113.774 481.168 113.762 481.191 113.762 481.219C113.762 481.243 113.773 481.263 113.794 481.28C113.824 481.302 113.925 481.334 114.098 481.374C114.272 481.415 114.393 481.465 114.462 481.524C114.529 481.584 114.564 481.667 114.564 481.774C114.564 481.89 114.517 481.99 114.423 482.074C114.329 482.158 114.19 482.199 114.007 482.199C113.84 482.199 113.708 482.165 113.611 482.095C113.513 482.026 113.45 481.931 113.42 481.812ZM116.307 480.833L116.543 481.48H116.079L116.307 480.833ZM116.802 482.168H117.171L116.488 480.425H116.128L115.474 482.168H115.836L115.975 481.774H116.656L116.802 482.168ZM117.729 482.168H117.404V480.906H117.706V481.085C117.757 481.001 117.803 480.944 117.845 480.917C117.886 480.889 117.933 480.875 117.985 480.875C118.059 480.875 118.13 480.896 118.199 480.938L118.1 481.23C118.045 481.194 117.994 481.176 117.947 481.176C117.901 481.176 117.863 481.189 117.831 481.214C117.799 481.24 117.774 481.287 117.756 481.354C117.738 481.422 117.729 481.563 117.729 481.778V482.168ZM119.065 481.207C119.111 481.259 119.136 481.333 119.138 481.432H118.651C118.65 481.339 118.673 481.266 118.719 481.212C118.766 481.158 118.824 481.131 118.896 481.131C118.962 481.131 119.018 481.156 119.065 481.207ZM119.443 481.826L119.121 481.771C119.103 481.834 119.077 481.879 119.042 481.908C119.007 481.936 118.964 481.95 118.913 481.95C118.837 481.95 118.775 481.923 118.724 481.868C118.674 481.812 118.647 481.735 118.645 481.636H119.46C119.465 481.378 119.414 481.187 119.308 481.062C119.203 480.937 119.059 480.875 118.876 480.875C118.713 480.875 118.579 480.934 118.473 481.053C118.366 481.172 118.313 481.337 118.313 481.547C118.313 481.723 118.353 481.868 118.434 481.983C118.537 482.127 118.695 482.199 118.909 482.199C119.044 482.199 119.156 482.168 119.246 482.104C119.336 482.04 119.402 481.948 119.443 481.826ZM120.468 481.563C120.427 481.577 120.361 481.594 120.271 481.614C120.182 481.634 120.123 481.654 120.096 481.673C120.053 481.704 120.032 481.743 120.032 481.791C120.032 481.838 120.049 481.879 120.083 481.913C120.117 481.947 120.16 481.964 120.212 481.964C120.27 481.964 120.326 481.944 120.379 481.905C120.418 481.874 120.443 481.837 120.456 481.793C120.464 481.765 120.468 481.71 120.468 481.63V481.563ZM120.032 481.29L119.74 481.234C119.774 481.112 119.83 481.022 119.911 480.963C119.992 480.904 120.112 480.875 120.271 480.875C120.416 480.875 120.523 480.893 120.594 480.928C120.665 480.963 120.715 481.008 120.744 481.062C120.772 481.117 120.787 481.217 120.787 481.362L120.784 481.753C120.784 481.864 120.789 481.946 120.799 481.999C120.809 482.051 120.829 482.108 120.857 482.168H120.535C120.527 482.146 120.517 482.114 120.504 482.071C120.499 482.051 120.495 482.039 120.493 482.032C120.437 482.088 120.378 482.13 120.315 482.158C120.252 482.185 120.185 482.199 120.114 482.199C119.988 482.199 119.888 482.164 119.816 482.093C119.743 482.023 119.707 481.933 119.707 481.825C119.707 481.754 119.723 481.69 119.756 481.634C119.79 481.578 119.836 481.535 119.895 481.505C119.955 481.476 120.041 481.45 120.153 481.427C120.305 481.398 120.41 481.371 120.468 481.345V481.311C120.468 481.246 120.453 481.2 120.422 481.172C120.391 481.145 120.333 481.131 120.247 481.131C120.189 481.131 120.144 481.143 120.111 481.166C120.079 481.19 120.052 481.231 120.032 481.29ZM116.393 472.481L117.508 476.435H115.31L116.393 472.481ZM114.798 478.212H117.981L118.436 479.789H120.847L118.156 470.667H114.565L111.907 479.789H114.37L114.798 478.212Z" fill="#10298E"></path><path fill-rule="evenodd" clip-rule="evenodd" d="M102.122 471.95C103.104 471.95 103.98 472.416 104.557 473.147L105.07 472.012C104.267 471.23 103.175 470.748 101.97 470.748C100.094 470.748 98.4891 471.916 97.8304 473.57H96.8297L96.2388 474.876H97.5262C97.5165 474.997 97.5103 475.119 97.5103 475.242C97.5103 475.392 97.5178 475.54 97.5322 475.686H96.8852L96.2944 476.993H97.8611C98.5385 478.605 100.123 479.737 101.97 479.737C102.9 479.737 103.764 479.449 104.479 478.958V477.357C103.903 478.032 103.061 478.46 102.122 478.46C101.025 478.46 100.059 477.876 99.4971 476.993H102.778L103.369 475.686H99.0144C98.992 475.529 98.9799 475.368 98.9799 475.205C98.9799 475.094 98.9855 474.984 98.9958 474.876H103.735L104.326 473.57H99.4057C99.9498 472.602 100.962 471.95 102.122 471.95Z" fill="#FFBE00"></path></g></svg>