<svg xmlns="http://www.w3.org/2000/svg" viewBox="0 0 45 31" width="45" height="31"><g transform="translate(-348.5, -516.5)"><path fill-rule="evenodd" clip-rule="evenodd" d="M367.453 529.74H368.928L369.166 528.526H367.69L367.453 529.74ZM367.3 530.522H368.776L367.838 535.318C367.77 535.342 367.559 535.427 367.267 535.427C366.873 535.427 366.512 535.271 366.512 534.718C366.512 534.614 366.524 534.496 366.55 534.361C366.843 532.865 367.3 530.522 367.3 530.522ZM381.954 530.412C380.971 530.412 380.581 530.997 380.398 531.352H380.38L380.437 530.523H378.978C378.969 530.705 378.906 531.28 378.812 531.776C378.812 531.776 378.475 533.517 378.412 533.85C378.363 534.105 378.274 534.481 378.274 534.7C378.274 535.165 378.507 535.427 379.025 535.427C379.315 535.427 379.525 535.346 379.601 535.318L380.089 532.82C380.224 532.13 380.715 531.679 381.299 531.679C381.77 531.679 381.995 532.028 381.995 532.313C381.995 532.561 381.933 532.837 381.886 533.08L381.676 534.15C381.651 534.278 381.598 534.525 381.598 534.718C381.598 535.191 381.86 535.427 382.359 535.427C382.631 535.427 382.803 535.358 382.925 535.318L383.363 533.078C383.458 532.572 383.493 532.306 383.493 531.984C383.493 531.057 382.959 530.412 381.954 530.412ZM375.398 531.572C374.573 531.572 374.117 532.429 374.117 533.192C374.117 533.836 374.403 534.268 375.054 534.268C375.79 534.268 376.365 533.632 376.365 532.546C376.365 532.049 376.105 531.572 375.398 531.572ZM374.963 535.427C373.383 535.427 372.627 534.464 372.627 533.237C372.627 531.553 373.765 530.412 375.524 530.412C377.049 530.412 377.86 531.351 377.86 532.556C377.86 534.363 376.644 535.427 374.963 535.427ZM369.437 534.273C369.404 534.445 369.382 534.566 369.382 534.715C369.382 535.264 369.744 535.427 370.127 535.427C370.434 535.427 370.623 535.342 370.693 535.318L371.402 531.682L372.55 531.682L372.776 530.522L371.629 530.522L371.685 530.236C371.788 529.7 372.037 529.464 372.466 529.464C372.753 529.464 372.985 529.516 373.066 529.537L373.281 528.434C373.189 528.41 372.765 528.305 372.138 528.305C371.138 528.305 370.483 528.922 370.289 529.916L370.171 530.522H369.423L369.197 531.682H369.944C369.944 531.682 369.65 533.185 369.437 534.273ZM366.04 530.412C365.299 530.412 364.892 530.935 364.733 531.352H364.716L364.773 530.522H363.314C363.301 530.809 363.241 531.296 363.093 532.061C362.942 532.836 362.795 533.609 362.644 534.361C362.618 534.49 362.606 534.616 362.606 534.722C362.606 535.116 362.798 535.427 363.364 535.427C363.645 535.427 363.84 535.353 363.933 535.318L364.367 533.094C364.524 532.244 364.808 531.681 365.632 531.681C366.006 531.681 366.362 531.762 366.437 531.785L366.687 530.505C366.633 530.486 366.417 530.412 366.04 530.412ZM387.445 532.465C387.524 532.026 387.272 531.572 386.703 531.572C386.008 531.572 385.703 532.054 385.567 532.465H387.445ZM388.103 534.25C388.103 534.917 387.467 535.429 386.342 535.429C384.786 535.429 384.026 534.444 384.026 533.238C384.026 532.042 384.807 530.413 386.715 530.413C387.973 530.413 388.914 531.048 388.914 532.502C388.914 532.86 388.835 533.248 388.802 533.404H385.458C385.452 533.753 385.742 534.358 386.904 534.358C387.422 534.358 388.009 534.172 388.103 534.124C388.103 534.16 388.103 534.226 388.103 534.25ZM360.78 532.465C360.859 532.026 360.608 531.572 360.039 531.572C359.344 531.572 359.039 532.054 358.903 532.465H360.78ZM361.439 534.25C361.439 534.917 360.803 535.429 359.678 535.429C358.122 535.429 357.362 534.444 357.362 533.238C357.362 532.042 358.143 530.413 360.051 530.413C361.309 530.413 362.25 531.048 362.25 532.502C362.25 532.86 362.171 533.248 362.138 533.404H358.794C358.788 533.753 359.078 534.358 360.24 534.358C360.758 534.358 361.344 534.172 361.439 534.124C361.439 534.16 361.439 534.226 361.439 534.25ZM352.571 528.89H354.056V533.658C354.056 534.375 354.407 534.741 354.971 534.741C355.029 534.741 355.062 534.734 355.074 534.731C354.826 535.111 354.506 535.423 353.77 535.423C352.992 535.423 352.571 534.874 352.571 534.05V528.89Z" fill="#1A1919"></path><path fill-rule="evenodd" clip-rule="evenodd" d="M354.623 532.921C354.523 533.081 354.469 533.266 354.469 533.455V533.666C354.469 534.15 354.726 534.323 355.007 534.323C355.294 534.323 355.447 534.125 355.588 533.901C355.824 533.524 358.707 528.89 358.707 528.89H357.164L354.623 532.921Z" fill="#00A3DA"></path></g></svg>