<svg xmlns="http://www.w3.org/2000/svg" viewBox="0 0 57 39" width="57" height="39"><g transform="translate(-160.5, -629.5)"><path fill-rule="evenodd" clip-rule="evenodd" d="M180.905 655.923C181.162 655.789 181.599 655.614 182.061 655.614C183.123 655.614 183.697 656.331 183.697 657.665C183.697 659.223 182.926 659.982 181.685 659.982C181.231 659.982 180.528 659.84 180.015 659.573V653.755L180.905 653.547V655.923ZM180.897 659.265C181.171 659.382 181.471 659.398 181.685 659.398C182.318 659.398 182.798 659.015 182.798 657.665C182.798 656.606 182.404 656.264 181.83 656.264C181.487 656.264 181.239 656.356 180.897 656.539V659.265ZM171.776 655.722H171.836L173 659.882H173.925L175.313 653.972H174.311L173.437 658.381H173.377L172.187 653.972H171.425L170.311 658.381H170.251L169.292 653.972H168.333L169.721 659.882H170.645L171.776 655.722ZM179.107 659.598V658.965C178.636 659.24 178.208 659.398 177.746 659.398C176.864 659.398 176.444 658.956 176.444 657.956H179.236V657.648C179.236 656.289 178.576 655.614 177.506 655.614C176.222 655.614 175.562 656.531 175.562 657.798C175.562 659.115 176.153 659.982 177.591 659.982C178.208 659.982 178.722 659.815 179.107 659.598ZM178.422 657.398H176.462C176.555 656.564 176.958 656.173 177.48 656.173C177.943 656.173 178.38 656.522 178.422 657.398ZM187.636 658.631H187.593L185.675 653.972H184.639V659.882H185.41V655.697H185.487L187.234 659.882H187.782L189.529 655.597H189.606V659.882H190.531V653.972H189.469L187.636 658.631ZM191.473 657.798C191.473 656.339 192.295 655.614 193.425 655.614C194.556 655.614 195.378 656.339 195.378 657.798C195.378 659.223 194.599 659.982 193.425 659.982C192.252 659.982 191.473 659.223 191.473 657.798ZM194.479 657.798C194.479 656.673 194.007 656.198 193.425 656.198C192.86 656.198 192.372 656.673 192.372 657.798C192.372 658.94 192.817 659.398 193.425 659.398C194.033 659.398 194.479 658.94 194.479 657.798ZM198.374 655.614C197.39 655.614 196.576 656.006 196.191 656.231V659.882H197.082V656.581C197.347 656.431 197.784 656.281 198.127 656.281C198.563 656.281 198.897 656.398 198.897 657.056V659.882H199.788V656.864C199.788 656.006 199.403 655.614 198.374 655.614ZM204.129 658.965V659.598C203.744 659.815 203.23 659.982 202.613 659.982C201.175 659.982 200.584 659.115 200.584 657.798C200.584 656.531 201.244 655.614 202.528 655.614C203.599 655.614 204.258 656.289 204.258 657.648V657.956H201.466C201.466 658.956 201.886 659.398 202.768 659.398C203.23 659.398 203.658 659.24 204.129 658.965ZM201.483 657.398H203.444C203.402 656.522 202.965 656.173 202.502 656.173C201.98 656.173 201.578 656.564 201.483 657.398ZM208.506 655.756H207.589L206.613 658.823H206.562L205.466 655.756H204.523L206.168 659.923C205.962 660.54 205.603 660.991 205.02 660.991V661.674C206.005 661.674 206.527 661.074 206.955 659.923L208.506 655.756Z" fill="#0068A3"></path><path fill-rule="evenodd" clip-rule="evenodd" d="M187.845 636.5C189.024 636.5 190.14 636.767 191.134 637.241C191.29 637.313 191.446 637.393 191.602 637.48L190.911 638.082L189.873 637.038L188.121 638.559L187.08 637.453L183.816 640.317L185.909 642.561L185.087 643.265L187.147 645.513L186.33 646.215L189.275 649.406L191.023 647.84L192.534 649.518C192.234 649.746 191.906 649.96 191.545 650.158C190.453 650.764 189.189 651.112 187.845 651.112C183.711 651.112 180.34 647.829 180.34 643.806C180.34 639.782 183.711 636.5 187.845 636.5ZM186.477 643.344L188.262 641.78L189.869 643.517L188.085 645.081L186.477 643.344ZM189.531 644.782L187.747 646.346L189.354 648.084L191.139 646.519L189.531 644.782ZM185.2 640.377L186.985 638.813L188.592 640.551L186.807 642.115L185.2 640.377ZM189.814 638.363L188.476 639.535L189.681 640.839L191.019 639.665L189.814 638.363ZM190.854 644.909L192.193 643.736L193.398 645.039L192.059 646.212L190.854 644.909ZM193.37 646.367L192.031 647.541L193.237 648.843L194.575 647.67L193.37 646.367ZM192.57 641.509L193.463 640.727L194.266 641.595L193.374 642.377L192.57 641.509ZM192.323 638.146L191.43 638.928L192.234 639.797L193.126 639.015L192.323 638.146ZM193.711 644.09L194.604 643.308L195.407 644.176L194.515 644.958L193.711 644.09ZM191.048 640.982L189.709 642.156L190.915 643.458L192.253 642.285L191.048 640.982Z" fill="#0068A3"></path></g></svg>